<svg xmlns="http://www.w3.org/2000/svg" width="200" height="200" version="1.1" viewBox="0 0 200 200"><rect style="fill:#fff;stroke:#000;stroke-width:4" width="196" height="196" x="2" y="2"/><g transform="translate(40,40)"><rect width="120" height="120" x="0" y="0" fill="#fff" stroke="#000" stroke-width="2"/><g fill="#000"><rect width="10" height="10" x="10" y="10"/><rect width="10" height="10" x="30" y="10"/><rect width="10" height="10" x="50" y="10"/><rect width="10" height="10" x="70" y="10"/><rect width="10" height="10" x="100" y="10"/><rect width="10" height="10" x="10" y="30"/><rect width="10" height="10" x="40" y="30"/><rect width="10" height="10" x="60" y="30"/><rect width="10" height="10" x="100" y="30"/><rect width="10" height="10" x="10" y="50"/><rect width="10" height="10" x="30" y="50"/><rect width="10" height="10" x="70" y="50"/><rect width="10" height="10" x="100" y="50"/><rect width="10" height="10" x="10" y="70"/><rect width="10" height="10" x="50" y="70"/><rect width="10" height="10" x="70" y="70"/><rect width="10" height="10" x="90" y="70"/><rect width="10" height="10" x="10" y="90"/><rect width="10" height="10" x="30" y="90"/><rect width="10" height="10" x="50" y="90"/><rect width="10" height="10" x="70" y="90"/><rect width="10" height="10" x="100" y="90"/><rect width="40" height="40" x="40" y="40" fill="#fff" stroke="#000" stroke-width="1"/><text x="60" y="65" fill="#000" font-family="Arial" font-size="12" text-anchor="middle">支付</text></g></g><text x="100" y="180" fill="#000" font-family="Arial" font-size="14" text-anchor="middle">请扫码支持</text></svg>