<?xml version="1.0" encoding="UTF-8" standalone="no"?>
<svg
   width="200"
   height="200"
   viewBox="0 0 200 200"
   version="1.1"
   xmlns="http://www.w3.org/2000/svg">
  <rect
     style="fill:#ffffff;stroke:#000000;stroke-width:4"
     width="196"
     height="196"
     x="2"
     y="2" />
  <g transform="translate(40,40)">
    <!-- QR Code Placeholder -->
    <rect x="0" y="0" width="120" height="120" fill="#ffffff" stroke="#000000" stroke-width="2" />
    <g fill="#000000">
      <!-- Simulated QR code pattern -->
      <rect x="10" y="10" width="10" height="10" />
      <rect x="30" y="10" width="10" height="10" />
      <rect x="50" y="10" width="10" height="10" />
      <rect x="70" y="10" width="10" height="10" />
      <rect x="100" y="10" width="10" height="10" />
      
      <rect x="10" y="30" width="10" height="10" />
      <rect x="40" y="30" width="10" height="10" />
      <rect x="60" y="30" width="10" height="10" />
      <rect x="100" y="30" width="10" height="10" />
      
      <rect x="10" y="50" width="10" height="10" />
      <rect x="30" y="50" width="10" height="10" />
      <rect x="70" y="50" width="10" height="10" />
      <rect x="100" y="50" width="10" height="10" />
      
      <rect x="10" y="70" width="10" height="10" />
      <rect x="50" y="70" width="10" height="10" />
      <rect x="70" y="70" width="10" height="10" />
      <rect x="90" y="70" width="10" height="10" />
      
      <rect x="10" y="90" width="10" height="10" />
      <rect x="30" y="90" width="10" height="10" />
      <rect x="50" y="90" width="10" height="10" />
      <rect x="70" y="90" width="10" height="10" />
      <rect x="100" y="90" width="10" height="10" />
      
      <!-- Center logo placeholder -->
      <rect x="40" y="40" width="40" height="40" fill="#ffffff" stroke="#000000" stroke-width="1" />
      <text x="60" y="65" text-anchor="middle" font-family="Arial" font-size="12" fill="#000000">支付</text>
    </g>
  </g>
  <text x="100" y="180" text-anchor="middle" font-family="Arial" font-size="14" fill="#000000">请扫码支持</text>
</svg>
